<?xml version="1.0" encoding="UTF-8"?>
<!DOCTYPE svg PUBLIC "-//W3C//DTD SVG 1.1//EN" "http://www.w3.org/Graphics/SVG/1.1/DTD/svg11.dtd">
<!-- Creator: CorelDRAW 2019 (64-Bit) -->
<svg xmlns="http://www.w3.org/2000/svg" xml:space="preserve" width="147.635mm" height="147.632mm" version="1.1" style="shape-rendering:geometricPrecision; text-rendering:geometricPrecision; image-rendering:optimizeQuality; fill-rule:evenodd; clip-rule:evenodd"
viewBox="0 0 14760.56 14760.25"
 xmlns:xlink="http://www.w3.org/1999/xlink"
 xmlns:xodm="http://www.corel.com/coreldraw/odm/2003">
 <defs>
  <style type="text/css">
   <![CDATA[
    .fil0 {fill:#2B2A29;fill-rule:nonzero}
    .fil1 {fill:#2B2A29;fill-rule:nonzero}
   ]]>
  </style>
 </defs>
 <g id="Ebene_x0020_1">
  <metadata id="CorelCorpID_0Corel-Layer"/>
  <g>
   <path class="fil0" d="M14497.11 7379.92l263.45 0 0 0 -9.59 379.66 -28.5 374.79 -46.93 369.37 -64.92 363.48 -82.41 357.12 -99.46 350.28 -116.05 342.97 -132.17 335.2 -147.81 326.96 -163 318.25 -177.71 309.08 -191.96 299.43 -205.75 289.34 -219.09 278.78 -231.94 267.77 -244.35 256.29 -256.29 244.33 -267.76 231.94 -278.78 219.08 -289.34 205.75 -299.43 191.95 -309.08 177.71 -318.24 162.99 -326.94 147.8 -335.19 132.16 -342.96 116.05 -350.27 99.45 -357.1 82.41 -363.46 64.92 -369.34 46.92 -374.76 28.5 -379.63 9.59 0 -263.45 366.36 -9.27 361.46 -27.48 356.16 -45.26 350.44 -62.58 344.26 -79.45 337.67 -95.89 330.62 -111.87 323.14 -127.4 315.21 -142.5 306.84 -157.15 298.02 -171.36 288.75 -185.11 279.04 -198.43 268.87 -211.28 258.26 -223.71 247.19 -235.67 235.67 -247.19 223.71 -258.25 211.29 -268.87 198.43 -279.04 185.12 -288.75 171.36 -298.02 157.16 -306.85 142.51 -315.23 127.41 -323.15 111.87 -330.63 95.9 -337.68 79.45 -344.28 62.58 -350.46 45.27 -356.19 27.48 -361.49 9.27 -366.39 0 0zm-7116.77 -7116.47l0 -263.45 0 0 379.63 9.59 374.76 28.5 369.34 46.92 363.46 64.91 357.1 82.41 350.27 99.45 342.96 116.05 335.19 132.15 326.94 147.8 318.24 162.99 309.08 177.69 299.43 191.96 289.34 205.73 278.78 219.08 267.76 231.93 256.29 244.32 244.35 256.28 231.94 267.75 219.08 278.76 205.76 289.33 191.96 299.42 177.71 309.07 163 318.23 147.81 326.93 132.17 335.17 116.04 342.96 99.47 350.26 82.41 357.09 64.92 363.45 46.93 369.34 28.5 374.76 9.59 379.63 -263.45 0 -9.27 -366.36 -27.48 -361.46 -45.27 -356.16 -62.58 -350.43 -79.45 -344.25 -95.89 -337.66 -111.88 -330.6 -127.41 -323.14 -142.51 -315.2 -157.16 -306.83 -171.36 -298.01 -185.12 -288.74 -198.42 -279.01 -211.3 -268.87 -223.71 -258.23 -235.67 -247.18 -247.19 -235.66 -258.26 -223.7 -268.87 -211.28 -279.04 -198.41 -288.75 -185.1 -298.02 -171.36 -306.84 -157.15 -315.21 -142.5 -323.14 -127.39 -330.62 -111.87 -337.67 -95.89 -344.26 -79.45 -350.44 -62.57 -356.16 -45.26 -361.46 -27.48 -366.36 -9.27 0 0zm-7116.89 7116.47l-263.45 0 0 0 9.59 -379.63 28.5 -374.76 46.93 -369.34 64.92 -363.45 82.42 -357.09 99.46 -350.26 116.05 -342.96 132.17 -335.17 147.81 -326.93 163 -318.23 177.71 -309.07 191.97 -299.42 205.76 -289.33 219.09 -278.76 231.94 -267.75 244.35 -256.28 256.29 -244.32 267.77 -231.93 278.79 -219.08 289.34 -205.73 299.43 -191.96 309.09 -177.69 318.24 -162.99 326.95 -147.8 335.2 -132.15 342.96 -116.05 350.27 -99.45 357.11 -82.41 363.47 -64.91 369.35 -46.92 374.76 -28.5 379.64 -9.59 0 263.45 -366.37 9.27 -361.46 27.48 -356.17 45.26 -350.45 62.57 -344.27 79.45 -337.67 95.89 -330.62 111.87 -323.15 127.39 -315.22 142.5 -306.84 157.15 -298.03 171.36 -288.75 185.1 -279.04 198.41 -268.88 211.28 -258.27 223.7 -247.19 235.66 -235.67 247.18 -223.71 258.23 -211.31 268.87 -198.42 279.01 -185.13 288.74 -171.36 298.01 -157.16 306.83 -142.51 315.2 -127.41 323.14 -111.89 330.6 -95.88 337.66 -79.46 344.25 -62.58 350.43 -45.27 356.16 -27.48 361.46 -9.27 366.36 0 0zm7116.89 7116.88l0 263.45 0 0 -379.64 -9.59 -374.76 -28.5 -369.35 -46.92 -363.47 -64.92 -357.11 -82.41 -350.27 -99.45 -342.96 -116.05 -335.2 -132.16 -326.95 -147.8 -318.24 -162.99 -309.09 -177.71 -299.43 -191.95 -289.34 -205.75 -278.79 -219.08 -267.77 -231.94 -256.29 -244.33 -244.35 -256.29 -231.94 -267.77 -219.1 -278.78 -205.75 -289.34 -191.97 -299.43 -177.71 -309.08 -163 -318.25 -147.81 -326.96 -132.17 -335.19 -116.06 -342.98 -99.45 -350.28 -82.42 -357.12 -64.92 -363.48 -46.93 -369.37 -28.5 -374.79 -9.59 -379.66 263.45 0 9.27 366.39 27.48 361.49 45.27 356.19 62.58 350.46 79.46 344.28 95.89 337.68 111.88 330.62 127.41 323.16 142.51 315.23 157.16 306.85 171.36 298.02 185.13 288.75 198.43 279.04 211.3 268.87 223.71 258.25 235.67 247.19 247.19 235.67 258.27 223.71 268.88 211.28 279.04 198.43 288.75 185.11 298.03 171.36 306.84 157.15 315.22 142.5 323.15 127.4 330.62 111.87 337.67 95.89 344.27 79.45 350.45 62.58 356.17 45.26 361.46 27.48 366.37 9.27 0 0z"/>
  </g>
  <path class="fil1" d="M13292.96 7138.9l-0.86 -0.45c0.86,-61.09 -5.38,-148.65 -14.61,-229.27 -13.91,-8.37 -30.97,-12.72 -45.75,-19.99 -91.33,77.46 -164.45,165.48 -199.61,282.7 -44.72,149.23 -24.17,330.17 -24.17,330.17 0,0 -133.88,-136.06 -87.89,-401.98 19.41,-111.73 59.95,-201.91 105.53,-276.02 -127.23,-21.87 -258.94,-20.56 -363.28,4.77 -14.65,3.61 -27.94,10.58 -42.43,14.93 -52.97,112.76 -52.68,220.42 -17.36,313.64 33.28,88.17 113.62,199.04 113.62,199.04 0,0 -187.01,-44.89 -261,-216.11 -30.23,-70.33 -37.74,-139.95 -35.61,-203.96 -105.78,68.36 -194.07,159.36 -243.02,275.6 -138.81,329.76 -44.72,600.73 27.81,739.82 48.17,69.76 141.27,176.59 293.25,245.32 169.78,76.89 313.51,85.26 313.51,85.26 0,0 -93.63,57.32 -314.38,43.12 -118.25,-7.63 -218.57,-64.54 -284.99,-113.45 -99.33,209.59 -272.86,261.69 -420.53,275.32 -416.99,38.61 -913.62,-293.29 -1345.1,-641.84 0.29,-0.7 0.41,-1.56 0.58,-2.3 -268.8,-207.41 -508.21,-435.7 -656.57,-594.49 -131.42,-140.97 -279.95,-354.75 -279.95,-354.75l295.01 -339.73c0,0 69.47,364.03 440.58,766.46 104.51,113.45 189.64,201.74 261.28,266.45 53.55,-306.25 61.68,-638.02 63.28,-638.88 194.07,-120.43 701.86,-423.11 1079.92,-592.15 569.58,-255.05 1103.26,-285.9 1499.74,-261.16 -63.72,-258.37 -115.09,-517.15 -332.63,-1044.02 -145.2,-351.88 -356.51,-703.63 -513.29,-936.68l0.28 0c0,0 -2.46,-3.45 -4.63,-6.65 -9.11,-13.46 -18.8,-28.22 -27.61,-40.95 -0.29,0 -0.91,0 -1.32,0 -6.64,-9.56 -12.59,-17.97 -14.89,-20.84 -53.3,-72.1 -328,-429.18 -493.31,-614.31 -47.19,-53.14 -104.22,-113.21 -161.7,-172.13 -0.13,0 -1.15,-1.27 -1.15,-1.27l-0.45 -0.17c-127.07,-130.55 -255.63,-254.47 -281.96,-279.78 -23.72,-23.6 -70.21,-65.73 -163.72,-139.71 -13.87,3.78 -27.03,12.03 -40.94,16.83 -9.4,108.98 0.57,213.93 50.5,315.12 69.06,139.66 207.58,258.08 207.58,258.08 0,0 -190.75,-8.25 -338.42,-234.2 -54.28,-83.08 -85.83,-165.31 -104.63,-242.04 -107.25,75.7 -200.64,172.13 -256.07,267.81 -6.36,10.84 -9.4,22.74 -15.18,33.85 41.07,93.96 105.08,160.55 182.78,198.87 84.4,41.69 218.74,68.04 218.74,68.04 0,0 -167.32,94.82 -338.13,19.98 -52.56,-23.02 -95.39,-54.86 -131.74,-89.44 -25.6,127.97 -21.26,260.26 22.9,384.57 78.73,221.49 258.2,387.37 498.06,472.92 84.52,16.21 215.38,25.6 362.43,-24.04 176.59,-59.62 287.5,-151.57 287.5,-151.57 0,0 -29.54,105.98 -200.64,246.1 -65.86,53.83 -142.42,82.63 -211.02,98.43 102.04,232.31 20.68,406.57 -83.95,520.19 -225.67,244.21 -678.72,401.85 -1215.61,425 -125.76,-187.02 -239.82,-316.72 -294.85,-375.07 -4.18,-4.47 -28.63,-30.52 -60.64,-62.82 -26.5,-34.3 -172.99,-163.26 -327.54,-295.83 -47.19,67.58 -121.75,164.41 -224.24,266.91 -191.36,191.36 -530.07,292.96 -530.07,292.96 0,0 -392.09,-65.74 -712.13,-300.06 -132.03,-96.71 -296.15,-257.92 -361.03,-385.31 -216.23,-303.1 -116.36,-762.52 -116.36,-762.52 0,0 -105.66,-11.16 -234.2,-71.8 -187.02,-88.3 -348.1,-269.82 -401.24,-432.21 -60.64,-185.58 -57.03,-626.05 430.2,-788.28 222.19,-58.06 322.51,42.67 322.51,42.67 0,0 -342.94,14.94 -472.47,237.24 -129.41,222.34 -64.26,421.38 64.42,528.34 154.72,138.07 532.36,189.48 532.36,189.48 0,0 -117.55,416.01 1.89,667.98 64.83,136.95 291.23,386.05 541.64,502 158.92,73.95 298.91,132.86 445.1,160.68 232.44,-107.87 419.62,-378.09 427.99,-390.4 -0.58,-0.58 -1.56,-1.31 -2.3,-1.89 5.66,-7.1 11.73,-13.3 17.23,-20.56 134.46,-177 203.23,-406.74 202.94,-407.02l-1.89 0.86c0.7,-2.59 1.32,-4.31 1.32,-4.31 0,0 -454.38,-248.11 -288.65,-558.59 116.08,-217.83 418.31,-88.01 553.5,-9.27l158.79 92.35 420.24 -861.84c0,0 -579.59,-253.16 -863.57,-363l169.91 -472.31 -194.98 -65.16c-979.2,-327.25 -1880.1,-378.66 -2767.38,-230.71 -841.13,140.24 -1545.91,606.64 -1933.69,1279.42 -392.25,680.73 -442.06,1621.44 -126.61,2334.6 225.51,509.97 534.09,830.41 590.84,1495.8 43.4,509.52 -197.89,921.06 -372.61,1291.6 117.56,11.12 256.08,33.27 256.08,33.27 180.77,23.31 528.18,39.22 821.43,49.24 207.74,-202.08 487.07,-559.05 554.53,-1064.05 58.47,-549.31 -141.1,-992.69 -306.3,-1287.37 -158.05,-281.83 -461.3,-700.88 -623.54,-1020.18 -280.23,-550.47 -337.56,-1067.66 -191.94,-1541.97 89.9,-293.12 276.58,-537.74 505,-718.52 201.34,-148.08 307.61,-160.23 492.45,-216.57 -320.61,190.22 -577.14,473.5 -691.32,845.48 -145.62,474.35 -95.81,991.49 184.39,1541.96 162.28,319.34 487.97,708.56 646.02,990.23 165.15,294.84 380.11,737.93 351.14,1250.03 -12.43,342.03 -171.39,783.51 -370.84,1086.15 -48.33,73.12 -78.28,115.96 -101.46,147.38 1.88,0 4.8,0.13 6.64,0.13 -159.07,217.42 -565.07,623.58 -1106.26,826.36 -574.8,215.24 -1212.87,231.32 -1480.8,46.61 -13.46,-9.4 -26.05,-19.13 -37.91,-28.93 348.84,-40.12 708.85,-235.67 834.48,-631.7 140.52,-443.04 -23.89,-736.9 -295.71,-987.88 411.21,-547.27 438.29,-1243.92 58.47,-1675.57 -49.52,-56.46 -103.64,-105.98 -160.68,-148.53 128.55,-582.75 37.5,-1325.57 -309.33,-1579.02 -188.16,-137.37 -401.52,-180.08 -616.89,-124.08 -539.06,140.98 -887.61,784.99 -1050.3,1142.65 -162.98,357.22 -298.62,723.87 -449.74,1433.4 -127.23,598.39 -148.65,1763.04 102.66,2584.18 37.91,123.18 118.09,114.93 121.58,47.31 13.58,-292.5 55.31,-530.76 107.42,-722.71 61.05,-225.39 136.75,-386.63 198.87,-495.32 197.28,-345.07 382.4,-1083.12 141.68,-1691.81 -89.28,-226.07 -51.37,-576.07 84.4,-949.52 199.61,-430.49 533.96,-894.55 840.83,-974.85 103.77,-27.24 196.58,-7.39 291.93,62.2 134.05,98.15 278.51,575.38 178.19,1104.42 -69.92,-14.32 -141.39,-19.66 -212.91,-15.35 -243.76,14.37 -464.22,140.28 -605.32,344.94 -217.01,315.98 -215.13,795.67 134.45,1218.94 -303.38,431.47 -532.94,831.97 -463.77,1331.06 45.75,329.31 271.26,580.42 596.5,683.77 50.1,158.22 149.4,291.69 292.1,390.24 189.31,130.27 467.09,195.27 787.29,195.27 178.6,0 370.38,-20.98 567.08,-61.68 -50.5,234.08 -243.31,472.31 -391.67,561.34 -338.54,203.23 -808.84,167.78 -1245.52,-250.28 0,0 -92.93,-91.33 -154.32,-148.04 -252.71,276.18 -472.18,788.85 -472.31,1153.9l213.49 306.13c916.83,1145.4 1884.49,1672.98 2692.46,1962.2 0,-0.16 0.12,-0.29 0.29,-0.45 17.64,6.36 352.45,127.23 639.46,203.39 343.34,91.04 700.3,109.55 700.3,109.55l1.6 -4.35c12.44,-12.43 21.71,-29.09 33.11,-42.83 -79.88,-125.92 -173.52,-228.13 -311.91,-280.36 -145.74,-55.15 -327.71,-47.19 -327.71,-47.19 0,0 145.04,-124.03 407.02,-59.66 158.51,38.94 271.71,117.27 350.9,191.82 46.89,-111.03 74.39,-229.44 74.68,-331.03 0.12,-9.73 -2.46,-18.84 -2.92,-28.39 -14.03,-13.58 -28.06,-27.48 -44.84,-42.38 -142.29,-126.08 -287.75,-148.24 -412.81,-110.74 -90.18,27.07 -206.3,99.41 -206.3,99.41 0,0 57.65,-183.36 233.78,-245.19 143.73,-50.35 281.39,-16.21 368.38,18.54 -43.29,-97.4 -107.42,-184.71 -189.6,-254.88 -140.12,-120.18 -382.85,-221.94 -582.47,-199.32 -199.73,22.57 -283.1,57.44 -398.07,131.25 -116.49,75.01 -183.08,138.84 -255.46,272.86 -88.58,164.16 -106.84,307.03 -106.84,307.03 0,0 -50.8,-97.57 -21.14,-316.72 23.76,-176.59 155.75,-306.29 197.32,-343.46 -227.68,-166.34 -459.71,-509.4 -474.77,-740.97 469.84,124.33 940.7,117.39 1321.8,-20.72 38.93,-18.39 81.81,-39.51 119.15,-65.41 299.2,-206.43 382.57,-363.74 478.38,-576.11 156.77,-347.65 232.59,-903.78 108.28,-1183.56 -119.57,-268.8 -575.09,-552.64 -575.09,-552.64l328.57 -82.1c0,0 179.62,108.28 302.51,239 122.77,130.55 259.69,261.24 259.69,261.24 0,0 221.9,280.11 460.85,347.24 229.28,64.59 302.81,53.59 492.86,41.11 65,-4.31 148.24,-19.08 244.5,-39.63 0,-0.45 -0.16,-0.58 -0.29,-0.86 212.91,-64.88 372.73,-115.55 558.43,-211.93 -196.99,-100.03 -376.05,-250 -522.53,-415.84 -280.11,-317.46 -377.06,-888.76 -377.06,-888.76l335.95 -148.37c0,0 -3.77,458.27 231.45,813.47 125.19,189.03 268.06,345.81 533.97,507.35 180.2,109.43 402.51,189.19 549.15,235.06 117.56,32.86 234.04,61.09 319.88,77.13 282.57,53.01 468.57,68.65 900.04,78.16 112.92,2.34 329.89,21.87 463.65,74.15 139.95,54.28 302.81,153.57 436.4,282.65 122.15,117.84 302.93,386.91 355.94,574.51 91.91,-120.42 308.59,-478.94 541.48,-1033.47 162.11,-386.05 303.38,-1107.04 300.22,-1110.94 26.91,-118.25 67.17,-460.57 72.5,-646.84 5.5,-192.68 15.35,-652.68 15.35,-652.68zm-10066.56 -42.42c10.3,7.96 20.85,15.92 31.72,23.6 55.26,40.37 109.84,79.31 163.14,117.1 47.18,33.73 91.61,65.57 133.42,96.55 -201.17,287.74 -438.57,694.07 -499.95,1076.48 -91.46,-58.64 -171.68,-153.01 -192.8,-304.53 -48.05,-346.09 119.15,-654.69 364.47,-1009.19zm291.4 -1499.13c-6.69,21.3 -13.17,42.43 -19.58,63.11 -106.23,343.05 -184.38,567.54 -334.19,800.58 -168.92,-255.45 -169.09,-513.82 -51.82,-684.5 75.82,-110.29 188.58,-175.29 317.42,-182.95 8.53,-0.58 16.95,-0.87 25.47,-0.87 20.85,0 41.85,1.6 62.7,4.64zm269.37 1427.78c-46.61,-33.88 -94.37,-67.9 -142.01,-101.92 -52.23,-37.17 -105.53,-75.25 -159.65,-114.93 -12.02,-8.65 -23.6,-17.19 -35.16,-25.88 223.21,-321.07 314.09,-604.63 414.54,-927.99 247.82,292.54 214.1,775.44 -77.71,1170.72zm-365.34 1496.55c31.55,-280.69 216.97,-636.18 436.4,-953.88 181.35,175.7 240.56,334.64 164.45,574.76 -111.19,350.44 -317.29,373.63 -600.85,379.12zm4601.32 -5934.04c0,0 365.51,32.13 587.23,134.05 -325.38,97.69 -464.92,272.69 -649.47,298.45 -27.32,-139.54 62.24,-432.5 62.24,-432.5zm2465.78 1836.11c-182.26,90.02 -384.17,58.02 -457.82,-24.46 -73.86,-82.5 -89.9,-132.03 -132.73,-218.57 -45.63,-86.57 -92.81,-180.65 -152.6,-270.97 -61.05,-89.03 -135.48,-176.47 -228.98,-236.95 -92.61,-61.54 -224.2,-109.59 -297.88,-107.58 -73.54,2.05 -43.29,29.83 -13.01,44.31 30.4,14.32 160.06,102.78 215.08,171.23 55.89,68.19 92.07,148.07 119.28,233.21 60.48,171.06 67.01,361.11 182.95,588.09 14.9,28.51 31.26,56.74 54,85.38l31.96 42.42 34.91 37.34c46.33,50.67 104.8,94.37 170.2,130.55 131.75,72.38 307.16,78.04 446.12,15.8 141.56,-59.37 239.83,-175.74 288.61,-293.86 48.66,-119.85 51.54,-281.09 14.94,-357.78 -36.35,-76.44 -127.97,87.27 -275.03,161.82zm-4157.26 7259.89c817.66,148.78 1231.78,711.72 1436.73,1609.99 1411.16,-90.42 2426.26,-626.45 3116.26,-1133.33l0.29 1.43c0,0 347.69,-275.32 578.69,-487.07 81.48,-74.84 162.12,-161.82 230.02,-239.41 0,1.31 0.57,2.91 0.57,4.23 0,0 106.39,-116.82 174.14,-200.35 -2.46,-12.89 -9.15,-25.31 -12.6,-38.08 -134.78,-16.49 -262.72,-9.97 -383.02,54.74 -137.2,73.98 -250.53,216.4 -250.53,216.4 0,0 1.56,-190.79 222.18,-346.38 110.42,-77.87 221.9,-115.51 318.57,-132.16 -67.46,-107.13 -153.99,-201.91 -242.16,-261.57 -10.55,-7.22 -22.57,-11.12 -33.4,-17.81 -158.95,33.72 -259.39,119.44 -308.18,227.55 -38.65,86 -60.23,221.04 -60.23,221.04 0,0 -100.73,-163.84 -31.67,-337.27 36.59,-92.48 99,-158.79 161.08,-206.26 -111.44,-22.57 -226.64,-21.26 -337.68,9.56 -260.83,72.79 -527.44,268.38 -585.66,704.9 -1.85,76.44 7.26,169.38 44.76,268.96 65.69,174.43 161.54,281.96 161.54,281.96 0,0 -106.84,-25.6 -252.87,-191.78 -50.1,-57.03 -80.5,-123.63 -99.46,-185.7 -254.59,134.29 -681.31,217.55 -901.64,252.14 -275,43.12 -474.77,59.33 -606.93,-18.96 -138.52,-82.23 -187.59,-145.78 -254.88,-277.2 -85.26,-167.04 -52.23,-442.92 -15.19,-555.23 69.76,-209.91 402.23,-517.48 279.79,-931.75 -10.14,-54.41 -19.54,-95.52 -28.97,-132.57 -41.23,18.67 -81.48,35.61 -119.28,48.5 -466.8,160.64 -1019.44,-44.72 -1019.44,-44.72 0,0 -36.6,460.57 -216.52,739.2 -223.95,347.24 -396.32,489.24 -591.46,632.68 -122.03,89.61 -236.08,145.05 -330.29,180.62 -0.86,93.38 -12.47,195.26 -42.55,283.72z"/>
 </g>
</svg>
